<?xml version="1.0" standalone="no"?>
<!DOCTYPE svg PUBLIC "-//W3C//DTD SVG 20010904//EN"
 "http://www.w3.org/TR/2001/REC-SVG-20010904/DTD/svg10.dtd">
<svg version="1.0" xmlns="http://www.w3.org/2000/svg"
 width="1400.000000pt" height="1400.000000pt" viewBox="0 0 1400.000000 1400.000000"
 preserveAspectRatio="xMidYMid meet">
<metadata>
Created by potrace 1.11, written by Peter Selinger 2001-2013
</metadata>
<g transform="translate(0.000000,1400.000000) scale(0.100000,-0.100000)"
fill="#000000" stroke="none">
<path d="M0 7000 l0 -7000 7000 0 7000 0 0 7000 0 7000 -7000 0 -7000 0 0
-7000z m7115 4510 c926 -67 1750 -405 2481 -1018 l39 -33 -25 -46 c-24 -43
-32 -48 -122 -84 -74 -29 -106 -48 -138 -81 -39 -41 -41 -46 -36 -91 3 -26 8
-51 11 -56 3 -5 27 -12 54 -16 l48 -7 28 -71 c15 -40 29 -74 31 -76 2 -2 40
11 85 29 93 38 93 38 103 -54 4 -33 10 -72 13 -85 l6 -24 -89 7 c-115 10 -119
10 -200 -3 l-69 -12 -70 -100 c-38 -55 -74 -104 -80 -109 -6 -5 -58 -16 -115
-25 -58 -10 -106 -18 -108 -20 -7 -6 -32 -177 -27 -184 3 -5 23 -12 46 -16 35
-6 40 -10 36 -29 -3 -11 -9 -38 -12 -58 -4 -21 -13 -38 -20 -38 -7 0 -57 9
-111 20 l-99 20 -99 -23 -100 -22 -22 -56 c-22 -55 -23 -59 -8 -155 21 -147
16 -138 90 -169 65 -28 68 -28 215 -22 83 3 156 10 163 16 7 6 18 29 25 51 10
34 83 138 201 288 l26 33 72 -13 71 -12 60 57 c33 31 62 57 65 57 3 0 11 -20
17 -44 10 -42 17 -47 170 -151 87 -59 162 -111 165 -116 3 -5 -2 -19 -10 -31
-13 -19 -23 -21 -91 -19 l-77 2 19 -31 c10 -17 26 -38 35 -47 26 -23 114 -22
163 2 l40 20 1 64 c1 55 4 65 23 75 l22 12 -23 25 c-13 13 -71 51 -130 83
l-106 58 -26 72 c-14 39 -26 74 -26 79 0 4 42 7 93 7 88 0 95 -2 118 -26 13
-14 58 -55 100 -91 l77 -64 7 -87 7 -87 79 -85 c54 -58 82 -81 87 -73 4 7 18
57 31 110 13 54 28 104 34 111 6 8 32 24 58 37 l47 24 6 -52 c4 -29 9 -72 12
-97 5 -37 16 -56 65 -109 l59 -64 109 6 109 5 56 -165 c43 -126 53 -169 45
-180 -9 -10 -51 -13 -181 -13 l-170 0 -104 76 -105 76 -92 -6 c-133 -10 -127
-6 -127 -82 l0 -64 -36 0 c-23 0 -47 9 -70 26 -23 18 -76 37 -171 60 -76 19
-162 41 -190 50 l-53 15 0 119 0 120 -27 0 c-16 0 -122 -7 -238 -16 l-210 -16
-72 -40 -72 -39 -148 2 -149 1 -112 -62 -112 -62 0 -122 0 -121 -236 -169
c-263 -190 -241 -162 -210 -271 11 -39 13 -40 60 -43 l48 -3 -6 -32 c-4 -18
-9 -49 -12 -69 -5 -31 -12 -39 -40 -48 l-34 -12 0 -182 0 -183 203 -231 202
-232 88 0 c69 0 89 3 93 15 5 12 33 15 168 15 l162 0 39 40 39 40 101 0 101 0
48 -49 48 -49 129 -12 c107 -10 129 -15 129 -29 0 -9 -7 -77 -15 -151 -8 -74
-15 -148 -15 -165 0 -20 46 -112 145 -285 79 -140 145 -261 145 -268 0 -6 -34
-78 -76 -158 l-77 -146 6 -71 c6 -70 6 -71 67 -132 l60 -61 0 -167 0 -167 80
-108 79 -109 3 -144 3 -144 70 -5 69 -5 -105 -120 c-701 -795 -1665 -1299
-2719 -1421 -189 -21 -590 -29 -780 -15 -751 57 -1415 282 -2035 689 -1516
994 -2232 2822 -1799 4592 38 157 121 414 178 550 l35 85 1 -120 0 -121 85
-42 85 -42 0 -165 0 -166 88 -148 87 -149 64 -10 c35 -6 68 -9 72 -7 3 3 10
25 14 51 6 44 4 48 -74 170 -77 119 -80 127 -91 206 -6 46 -13 100 -16 121
l-6 37 46 0 c52 0 47 11 71 -144 l15 -99 119 -172 118 -173 -30 -56 -29 -55
73 -115 73 -115 183 -45 c100 -25 185 -46 188 -46 3 0 5 13 5 28 l0 28 74 -10
c59 -7 73 -12 70 -25 -1 -9 -5 -33 -8 -53 l-5 -37 57 -11 c31 -6 100 -23 152
-37 l95 -25 90 -104 c50 -57 106 -123 126 -146 l36 -41 156 -12 c86 -6 159
-14 163 -17 5 -6 34 -216 34 -248 -1 -8 -49 -49 -109 -90 l-109 -75 -6 -65
c-3 -36 -6 -88 -6 -117 0 -29 -7 -86 -16 -127 l-17 -75 157 -196 c86 -108 160
-203 163 -212 4 -9 11 -43 17 -76 l11 -60 78 -21 c67 -18 94 -33 197 -109
l120 -88 2 -367 3 -367 38 -9 c45 -12 45 -8 12 -186 -14 -74 -25 -142 -25
-151 0 -8 32 -58 70 -109 44 -59 70 -103 70 -119 0 -14 -5 -91 -11 -171 l-12
-145 99 -173 98 -172 127 -110 126 -109 128 -3 127 -3 13 41 12 41 -93 78 -94
78 7 41 c3 23 14 65 25 95 10 30 18 74 18 98 l0 43 -62 0 c-60 0 -64 2 -95 37
l-32 38 54 55 c37 38 56 66 60 91 l7 36 -54 14 c-51 13 -53 16 -56 50 l-3 37
81 11 c63 10 110 26 211 73 l129 61 44 81 c25 45 104 157 177 250 l132 168
-31 132 -30 131 39 70 38 70 123 -3 123 -3 83 66 c45 37 84 76 87 88 2 12 15
129 28 259 l24 236 90 115 c75 94 93 124 102 168 7 29 14 63 17 75 5 19 -3 24
-79 48 l-85 26 -52 89 -53 89 -199 7 -199 7 -137 52 -137 53 -10 109 c-10 105
-12 112 -61 194 l-50 85 -134 3 -135 3 -78 123 -78 123 -69 31 -70 31 0 -30
c0 -39 -18 -45 -151 -51 l-107 -6 -42 60 c-23 32 -52 63 -64 68 -31 11 -246
54 -249 49 -2 -2 -50 -58 -107 -124 -57 -66 -104 -121 -104 -122 -2 -5 -331
58 -336 64 -4 5 -12 88 -18 185 -6 97 -13 181 -16 186 -3 5 -57 18 -121 28
-63 10 -115 22 -115 27 0 6 21 48 46 94 46 84 46 85 33 131 -6 26 -14 50 -16
54 -2 4 -76 -40 -163 -99 l-159 -106 -77 7 c-136 12 -130 9 -170 95 l-35 76
22 85 c14 54 43 123 80 190 l58 105 126 63 125 62 256 0 256 0 -4 -72 -3 -73
85 -42 c47 -24 88 -43 92 -43 4 0 5 59 1 131 l-6 130 64 65 c37 38 119 101
196 151 l132 85 7 62 7 61 136 138 c129 130 142 141 266 209 152 83 141 76
128 89 -7 7 18 38 82 99 90 87 93 89 125 80 18 -5 41 -17 52 -27 18 -16 21
-15 60 24 l41 42 -29 6 c-16 3 -49 11 -74 18 -42 12 -45 15 -48 50 -4 49 26
76 85 77 59 0 91 -18 114 -62 11 -21 24 -36 28 -33 5 2 26 7 47 10 139 17 133
14 140 50 6 32 6 32 45 22 36 -9 39 -12 39 -43 0 -28 -6 -38 -35 -56 -27 -18
-35 -30 -35 -53 0 -16 4 -35 8 -41 8 -13 235 -84 267 -84 19 0 24 7 30 46 4
27 2 50 -4 58 -6 7 -49 30 -96 51 -54 24 -87 44 -91 57 -8 26 -2 30 76 58 36
13 68 29 72 34 4 6 8 40 8 76 l0 65 -79 48 -78 48 -7 67 c-3 37 -6 93 -6 125
0 32 -4 57 -10 57 -6 0 -55 -22 -110 -50 -76 -38 -110 -50 -145 -50 -39 0 -46
3 -41 18 2 9 8 51 11 93 l7 77 -151 36 -152 36 -64 -48 -64 -47 -1 -146 0
-146 -111 -34 -112 -34 -44 -90 c-24 -49 -47 -92 -51 -96 -4 -4 -26 -9 -49
-13 l-43 -6 0 119 0 119 -27 6 c-16 3 -64 10 -108 16 -62 9 -91 19 -132 45
-45 30 -53 41 -67 87 -32 113 -49 90 159 212 132 77 213 117 277 138 98 31
107 29 108 -22 1 -62 8 -70 66 -70 l54 0 0 35 c0 30 3 35 24 35 70 0 115 30
67 45 -17 5 -31 32 -31 61 0 6 26 14 61 17 59 5 64 8 120 63 l58 57 142 18
141 18 59 -51 59 -51 -67 -37 c-38 -20 -108 -58 -157 -85 -61 -32 -84 -50 -75
-55 17 -9 360 -90 381 -90 9 0 23 26 37 65 l23 65 92 0 91 0 33 61 c18 34 32
63 30 64 -2 1 -30 9 -63 17 l-60 14 -5 78 -5 78 -197 88 -198 88 -127 -14
c-114 -13 -138 -19 -217 -57 l-88 -42 5 -98 5 -99 -61 7 c-93 11 -99 15 -113
73 l-11 52 75 67 c73 66 74 67 48 74 -48 13 -259 13 -297 0 -29 -9 -40 -20
-53 -54 -9 -24 -16 -46 -16 -49 0 -4 23 -10 51 -14 l51 -7 -7 -36 c-12 -68
-14 -71 -53 -71 -20 0 -61 -3 -89 -6 -48 -6 -54 -10 -64 -39 l-12 -32 -131 -5
c-72 -3 -132 -5 -132 -4 -1 0 -4 34 -7 74 l-6 72 97 0 97 0 79 79 79 79 -39
20 -39 20 -60 -55 -60 -54 -59 5 c-32 3 -74 6 -92 6 -31 0 -39 8 -91 80 l-58
79 -118 1 -117 0 -125 -92 c-68 -51 -124 -96 -125 -100 0 -5 51 -8 114 -8
l114 0 7 -31 c6 -25 2 -36 -21 -60 l-28 -29 96 0 c135 0 157 -6 174 -46 8 -18
14 -36 14 -39 0 -7 -177 -6 -233 1 -41 6 -46 9 -51 39 -6 31 -8 32 -94 50 -48
9 -107 29 -132 43 -39 23 -60 27 -155 32 l-109 5 129 86 c353 234 753 423
1138 539 481 145 1027 206 1522 170z m2475 -9060 c807 -46 1565 -243 2290
-596 163 -80 434 -224 468 -249 1 -1 -41 -91 -93 -200 -62 -129 -99 -195 -108
-192 -6 3 -76 33 -155 66 -1280 545 -2682 690 -4037 420 -452 -90 -926 -237
-1344 -415 -95 -41 -175 -73 -177 -71 -2 2 -18 104 -36 226 l-32 223 25 19
c13 10 139 77 279 147 920 462 1932 678 2920 622z"/>
<path d="M8882 10086 c-66 -14 -102 -52 -102 -107 0 -34 4 -39 83 -90 71 -47
82 -58 85 -86 3 -33 1 -35 -64 -48 -27 -5 -32 -12 -38 -43 -3 -20 -6 -55 -6
-76 l0 -39 138 6 137 6 48 53 48 53 -43 19 c-58 25 -72 38 -124 122 -33 53
-49 93 -63 155 -11 56 -22 85 -32 85 -8 1 -38 -3 -67 -10z"/>
<path d="M8687 9896 c-45 -11 -52 -16 -93 -81 -34 -54 -44 -80 -44 -112 l0
-43 53 0 c50 0 60 5 138 60 81 58 84 61 90 106 5 47 5 47 -35 65 -46 21 -44
21 -109 5z"/>
<path d="M6453 9360 c-11 -29 -14 -30 -72 -30 l-61 0 0 -35 c0 -24 5 -35 15
-35 8 0 15 -7 15 -15 0 -22 58 -19 97 4 18 11 33 30 35 43 2 16 13 26 37 34
39 13 61 42 40 55 -8 5 -32 9 -54 9 -36 0 -42 -3 -52 -30z"/>
<path d="M6168 9295 c-10 -13 -18 -38 -18 -56 0 -28 3 -31 23 -25 12 3 32 6
43 6 32 0 38 53 9 80 -27 26 -36 25 -57 -5z"/>
</g>
</svg>
